<?xml version="1.0" encoding="utf-8"?>
<!-- Generator: Adobe Illustrator 25.1.0, SVG Export Plug-In . SVG Version: 6.00 Build 0)  -->
<svg version="1.1" id="Calque_1" xmlns="http://www.w3.org/2000/svg" xmlns:xlink="http://www.w3.org/1999/xlink" x="0px" y="0px"
	 viewBox="0 0 881 941.8" style="enable-background:new 0 0 881 941.8;" xml:space="preserve">
<style type="text/css">
	.st0{fill:none;}
	.st1{fill:#949494;}
	.st2{fill:url(#SVGID_1_);}
	.st3{fill:#F8F8F8;}
	.st4{fill:#2100C1;}
	.st5{fill:#4E00E9;}
	.st6{fill:#FFBE00;}
	.st7{fill:none;stroke:#000000;stroke-width:2.5;stroke-linecap:round;stroke-linejoin:round;}
	.st8{fill:none;stroke:#DFDFDF;stroke-width:6.84;stroke-linecap:round;stroke-miterlimit:10;}
	.st9{fill:#D37C59;}
	.st10{fill:#FFD563;}
	.st11{fill:#DFDFDF;}
	.st12{fill:none;stroke:#DFDFDF;stroke-width:5.71;stroke-linecap:round;stroke-linejoin:round;}
	.st13{fill:#DE8E68;}
</style>
<pattern  y="941.8" width="12" height="12" patternUnits="userSpaceOnUse" id="New_Pattern" viewBox="2 -14 12 12" style="overflow:visible;">
	<g>
		<rect x="2" y="-14" class="st0" width="12" height="12"/>
		<rect x="2" y="-14" class="st0" width="12" height="12"/>
		<rect x="2" y="-14" class="st0" width="12" height="12"/>
		<circle class="st1" cx="14" cy="-5" r="2"/>
		<circle class="st1" cx="8" cy="-2" r="2"/>
		<circle class="st1" cx="2" cy="-5" r="2"/>
		<circle class="st1" cx="14" cy="-11" r="2"/>
		<circle class="st1" cx="8" cy="-8" r="2"/>
		<circle class="st1" cx="2" cy="-11" r="2"/>
		<circle class="st1" cx="8" cy="-14" r="2"/>
	</g>
</pattern>
<g id="Layer_2">
	<g id="shadow">
		<pattern  id="SVGID_1_" xlink:href="#New_Pattern" patternTransform="matrix(-1 0 0 -1 -15500.9805 -16824.1504)">
		</pattern>
		<path class="st2" d="M455.5,273c0,13.7-10.3,69.3-23.7,58c0.2,12.9,2.3,47.2,2.3,47.2l4.1,14.6l7.1,2.4l27.7-0.8l-0.8-41.7
			l-1.2-40.4l-11.7-2.9l-3.1-6.1l-0.6-16.1L455.5,273z"/>
	</g>
	<g id="Layer_2-2">
		<path d="M680.7,902.9c0.4,4.9,2.4,32.8,13.2,33.8s68.7-26.3,70.3-33.8c0.9-4.8,0.2-9.7-2-14l-53.7,5.3"/>
		<path d="M285.5,878.1c-4.2,5.4-15,20-15,25s13.7,36,23.5,37.9s50.5,0.6,50.5-5.8c0-12.7-22.5-12.7-24.7-14.7s-8.9-26.3-8.9-30.4
			S285.5,878.1,285.5,878.1z"/>
		<path class="st3" d="M782.3,511.4c-48.9-83.2-81.3-140.5-128.6-224.9c-30.2-53.9-66.4-118.9-109.4-164.3l-5.1,8.1l-7.8,7.3
			l-10.4,5.1l-0.3,9.5l0.3,8.5l1.3,1.8l10.6,5.6l8.8,7.5L554,192l9.2,18.7l6.3,17.1l6,21.2l4.1,18.1l4.5,25.9l2.6,21.2l2.4,40.3
			l-1.7,18.6l-54.1,33.7l1,116.2l-77.1,43.4l-11.8-58.1l18.1-67.8l-22.1-45.6l-3.6-2.9l-3.2-9.9l-2.2-30.7l-0.8-30.4l2.1-40l3-20.7
			l3.5-16.3l5.4-19l6.9-19.5l8.7-14.9l6.6-8.7l10.2-9.7l3.6-1.6l0.4-46.2l-4.4-8.9l-15.8-7l6.3-24.7l18.6-6
			c-7.1-3.5-14.5-6.3-22.2-8.3c-79.8-21.1-177.3,48-264.9,125.3C112.5,272,35,357.5,9.5,458.4s1.1,217.5,73.3,275.2
			c72,57.9,189.7,56.9,291.8,90.7c102.1,33.9,188.7,102.5,284.1,106.3c9.1,0.4,18.2,0.1,27.3-0.6l-5.7-25.8l33-10.4l48.8-4.8
			l2.4,8.3l-0.5,6l-3.9,4.8L736,920.2c68.1-20.6,127.4-69.8,141.5-131.8C896.9,703.5,831.2,594.4,782.3,511.4z"/>
		<path class="st4" d="M439.4,393.5c-10.7,39.3-38.6,224.1-38.6,230.5c0,6.8-118.7,248.7-118.2,253.7s29.7,15.1,29.7,15.1
			s165.2-215,175.7-224.6c10.1-9.2,102-236.4,97.5-293.7C567.9,384.1,455.5,400.6,439.4,393.5z"/>
		<path class="st5" d="M584.1,375.2c-20.8,9.4-124.1,24.5-143.5,18.8c0,0.4-0.1,0.8-0.1,1.3c-2.3,63.1,106.7,244.9,111.2,253.9
			s124.7,247.9,127,256.2c6,2.3,30.8-3.8,34.6-12.8L584.1,375.2z"/>
		<path class="st6" d="M521,162.4c63.3,17.5,73,201.5,66.5,210.6c-6.8,9.6-141.5,29.6-149.6,19.5c-7.2-9-19.7-181.8,44-222.8"/>
		<path class="st7" d="M477.9,115.9c-0.4-0.9-0.8-1.9-1.1-2.8"/>
		<line class="st8" x1="129.4" y1="932" x2="490.3" y2="501.7"/>
		<path class="st9" d="M527.2,309c-2.2,37.9-13,185.3-20.5,198.8c-8.4,15.1-30.6,31-34.3,31s-19.3-20.1-19.3-26.4
			s21.4-30.1,22.2-37.7c0.7-6.5-4.2-124.9-4.7-162.9"/>
		<path class="st10" d="M503.4,195.3c49.2,0,42.4,105.3,34.2,110.7s-72.5,9.6-79.3,2.7S454.2,195.3,503.4,195.3z"/>
		<path class="st11" d="M52.8,835.4l137.5-164.1c9.8-11.7,27.1-13.2,38.8-3.4l71.2,59.7l0,0L127.5,933.9l0,0l-71.2-59.7
			C44.6,864.4,43,847.1,52.8,835.4C52.8,835.4,52.8,835.4,52.8,835.4z"/>
		<circle class="st12" cx="169.8" cy="913.4" r="17.3"/>
		<path class="st9" d="M481.9,123.8v51.3c0,5.9,15.7,7.3,27.3,5.7c4.2-1.3,11.9-1.3,11.9-4.1v-42.2L488.6,122l-4-1.1"/>
		<ellipse class="st13" cx="510.5" cy="85.1" rx="40.1" ry="58.8"/>
		<path d="M501.1,0c-19.4,0-65,22.8-92.2,22.8c-20.5,0-48.2-21.5-71.5-21.5c-43.5,0-51.6,54.7-51.6,67.4c0,39.9,26.6,49.6,35.5,49.6
			c17.2,0,58.2-14.1,79.1-14.1c23.1,0,48.4,14.1,62.9,14.1c12.4,0,18-4.5,19.2-5.5c0.4-0.3,0.3-2.5,0.1-5.4
			c-0.6,0.1-1.2,0.1-1.7,0.1c-7.4,0-13.5-6.1-13.4-13.5s6.1-13.5,13.5-13.4c3,0,6,1.1,8.4,3c8.1-5.9,24-10.1,28.5-12.8
			c11.9-7.2,23.7-16.7,24.2-19.1c1.6,2.6,3.5,5.5,6.2,13.9c5.6-2.4,12.9-9.2,12.9-29.4C561.2,4.2,511.8,0,501.1,0z"/>
		<path class="st13" d="M486.9,107c-1.7,0.8-3.6,1.1-5.5,1.1c-7.8,0-14.1-6.3-14.1-14.1c0-7.8,6.3-14.1,14.1-14.1
			c3.6,0,7,1.4,9.7,3.8"/>
	</g>
</g>
</svg>
