<?xml version="1.0" encoding="utf-8"?>
<!-- Generator: Adobe Illustrator 25.1.0, SVG Export Plug-In . SVG Version: 6.00 Build 0)  -->
<svg version="1.1" id="Calque_1" xmlns="http://www.w3.org/2000/svg" xmlns:xlink="http://www.w3.org/1999/xlink" x="0px" y="0px"
	 viewBox="0 0 1035 737.5" style="enable-background:new 0 0 1035 737.5;" xml:space="preserve">
<style type="text/css">
	.st0{fill:#F2F2F2;}
	.st1{fill:#D37C59;}
	.st2{fill:#FFBE00;}
	.st3{fill:#FD8369;}
	.st4{fill:#DE8E68;}
	.st5{fill:none;stroke:#5B5B5B;stroke-width:1.62;stroke-linecap:round;stroke-linejoin:round;}
	.st6{fill:#5B5B5B;}
	.st7{fill:#4E00E9;}
	.st8{fill:none;stroke:#74D5DE;stroke-width:8.09;stroke-miterlimit:10;}
	.st9{fill:none;stroke:#FD8369;stroke-width:3.24;stroke-linecap:round;stroke-linejoin:round;}
</style>
<g id="Layer_2">
	<g id="Vector">
		<path class="st0" d="M696.3,129.3c72,68.1,135,132.6,205.9,224.3s149.8,210.6,112.4,281.6c-37.3,70.7-190.9,93.5-302.3,100
			c-111.1,6.7-180.3-2.8-243-11.4c-62.9-8.3-119.9-15.5-198.7-32.6c-79-17.1-179.8-44-231-109c-51-65-52.8-168.1-5.4-237
			s143.8-104,223.6-169.5C337.3,110.2,400.3,13.5,472,1.4C544-10.8,624.6,61.2,696.3,129.3z"/>
		<path class="st1" d="M7.6,331.4C41.1,369,170.4,449,186.8,460.6S470.7,652.4,492.5,661c125.2-5.4,181.3-102.6,181.3-127.2
			S540.3,333.9,482.2,327.3c-10.4-1.2-131.3,36-131.3,36L84.1,137.5C51.8,111.1,7.6,76.4,7.6,76.4V331.4"/>
		
			<rect x="750.7" y="288.4" transform="matrix(0.866 -0.5 0.5 0.866 -107.2793 448.3828)" class="st2" width="64.7" height="271.9"/>
		<circle class="st3" cx="834.1" cy="512.6" r="17.8"/>
		<path class="st4" d="M693.5,333.8c-6.7,3.9-45.5,23.4-58.5,21.8s-71.2-22.7-89-16.2s-102,43.7-102,43.7s-76.1,80.9-77.7,82.5
			s-0.1,14.2,2.2,16.2s28.5,9.9,32.8,7.3s62.8-47.5,73.3-47.5s110.9,72.1,170.7,135.8c13.8-6,141.1-82.7,141.1-82.7L693.5,333.8z"/>
		<path class="st4" d="M290.9,527.9c0,0-5.2,29.4,6.3,46.1s101.1,75.8,113.7,77.7s35.7-16,38.3-26s-14.1-46.8-19-52
			s-73.9-53.5-81.4-54.7S302.4,520.9,290.9,527.9z"/>
		<line class="st5" x1="299.6" y1="577.4" x2="349.1" y2="539.9"/>
		<line class="st5" x1="338.5" y1="608.9" x2="388" y2="571.4"/>
		<line class="st5" x1="376.4" y1="633.3" x2="414" y2="604.8"/>
		<line class="st5" x1="617.2" y1="615.6" x2="476.3" y2="501.2"/>
		<line class="st5" x1="564.8" y1="644.8" x2="475.5" y2="572.2"/>
		<line class="st5" x1="520.1" y1="660.2" x2="446.6" y2="600.5"/>
		<path class="st6" d="M179.3,315.5l52.9,45.2c10,8.5,11.1,23.5,2.6,33.5l-52.2,61.1c-8.5,10-23.5,11.1-33.5,2.6l-52.9-45.2
			c-10-8.5-11.1-23.5-2.6-33.5l52.2-61.1C154.4,308.1,169.4,307,179.3,315.5z"/>
		
			<rect x="193.5" y="277.4" transform="matrix(0.6498 -0.7601 0.7601 0.6498 -154.3228 284.6125)" class="st7" width="76.4" height="64.7"/>
		<circle class="st8" cx="226.5" cy="654.7" r="20"/>
		<circle class="st8" cx="737.7" cy="624.9" r="14.6"/>
		<circle class="st8" cx="638.5" cy="286.4" r="14.6"/>
		<rect x="323.9" y="105.4" class="st2" width="251.2" height="99.7"/>
		<polygon class="st2" points="513.8,241.4 533.1,201 494.6,201 		"/>
		<line class="st9" x1="358" y1="130.8" x2="540.9" y2="130.8"/>
		<line class="st9" x1="358" y1="155.3" x2="540.9" y2="155.3"/>
		<line class="st9" x1="358" y1="179.7" x2="540.9" y2="179.7"/>
		<path class="st7" d="M1035,115.6l-18.1,10.9c0,0-208.4,126-273.7,163.9l108.7,188.3l183.1-97.2V115.6z"/>
	</g>
</g>
</svg>
