<?xml version="1.0" encoding="utf-8"?>
<!-- Generator: Adobe Illustrator 25.1.0, SVG Export Plug-In . SVG Version: 6.00 Build 0)  -->
<svg version="1.1" id="Calque_1" xmlns="http://www.w3.org/2000/svg" xmlns:xlink="http://www.w3.org/1999/xlink" x="0px" y="0px"
	 viewBox="0 0 705.2 649.2" style="enable-background:new 0 0 705.2 649.2;" xml:space="preserve">
<style type="text/css">
	.st0{fill:#F2F2F2;}
	.st1{fill:#DE8E68;}
	.st2{fill:#FFBE00;}
	.st3{fill:#4E00E9;}
	.st4{fill:none;stroke:#4E00E9;stroke-width:3;stroke-miterlimit:10;}
	.st5{fill:none;stroke:#FED385;stroke-width:3;stroke-linecap:round;stroke-miterlimit:10;}
</style>
<g id="Layer_2">
	<g id="Vector">
		<path class="st0" d="M497.4,15.8c82.4,11.7,185.8,56,204.5,121.3c18.8,65.5-47,151.8-109.6,220.8C529.8,427,470.4,479,397.6,514
			c-72.7,34.8-158.7,53-216.5,20.1C123.4,501.5,94,417.9,59.8,344.3c-34.3-73.8-73.6-137.7-55-182.5c18.6-44.7,95.1-70.2,152.6-86.3
			s95.9-22.8,146-36.5C353.3,25.1,414.9,4.1,497.4,15.8z"/>
		<path class="st1" d="M235.3,35.5c-13.2,0-17.3,20.6-17.3,28.9c0,14,14.9,71.8,28.9,71.8c14,0,28.9-57,28.9-63.6
			S258.4,35.5,235.3,35.5z"/>
		<path class="st2" d="M296.1,0.5l198.6,39c13.7,2.7,22.7,16,20,29.8l-75.8,386.2c-2.7,13.7-16,22.7-29.8,20l-198.6-39
			c-13.7-2.7-22.7-16-20-29.8l75.8-386.2C269.1,6.7,282.4-2.2,296.1,0.5z"/>
		<path class="st3" d="M449.2,30.6l-2.5,12.8c-1.3,6.5-7.6,10.8-14.1,9.5l-85.6-16.8c-6.5-1.3-10.8-7.6-9.5-14.1L340,9.1"/>
		<line class="st4" x1="175.1" y1="386.6" x2="445.7" y2="439.7"/>
		<circle class="st3" cx="310.7" cy="434.5" r="10"/>
		<path class="st1" d="M219.6,147c-17.3,0-28.9,13.2-28.9,27.2c0,46.2,26.4,84.2,38,84.2c24.8,0,33.8-13.2,33.8-22.3
			C262.5,229.5,259.2,147,219.6,147z"/>
		<path class="st1" d="M210.5,268.3c4.9,5,42.9,45.4,42.9,73.5c0,19-4.1,33.8-38.8,33.8c-16.5,0-62.7-65.2-62.7-91.6
			c0-14.9,9.1-49.5,34.7-49.5c7.4,0,23.9,13.2,26.4,16.5c2.5,2.6,5.2,5.1,8.1,7.4c-1,5.4-6.8,33.6-6.8,33.6"/>
		<path class="st5" d="M222.6,281.9c0,0-11.8-14.8-19.2-21.4"/>
		<path class="st1" d="M204.3,434.4c-2.5,6.6-4.1,70.4,3.3,105.9c-5,25.6-24.8,109-24.8,109H362l18.2-72.6c0,0,110.6-96.6,121.3-114
			c10.7-17.3,35.9-118.4,35.5-127.9c-0.3-6.6-120.5-108.1-123.8-112.3s-61.4,54,35.2,120.9c-0.8,8.3-0.8,44.7-0.8,44.7
			s-67.2,23.1-74,28.1s-19.9,40.1-22.2,47.9C342.3,462.3,204.3,434.4,204.3,434.4z"/>
		<path class="st5" d="M337.3,505.4c2.3-8.6,13.2-39.5,15.9-46.9"/>
	</g>
</g>
</svg>
