<svg xmlns="http://www.w3.org/2000/svg" width="265" height="94"><path data-name="Rectangle 57" fill="#fff" d="M0 0h265v94H0z"/><path data-name="Tracé 7" d="M83.037 43.351l15.004 37.957 54.797-18.365s-.36-4.445 4.674-6.224a8.12 8.12 0 018.411 1.834l15.038-5.04-15.004-37.958-15.036 5.045s.332 4.502-5.125 6.48-7.961-2.093-7.961-2.093z" fill="#fff" stroke="#7530ff" stroke-linecap="round" stroke-linejoin="round" stroke-width="3"/><g fill="#7530ff"><path data-name="Tracé 17" d="M146.394 30.285a1.17 1.17 0 011.457.628 1.029 1.029 0 01-.681 1.345 1.17 1.17 0 01-1.463-.626 1.029 1.029 0 01.687-1.347z"/><path data-name="Tracé 18" d="M147.797 33.836a1.17 1.17 0 011.457.629 1.029 1.029 0 01-.681 1.345 1.17 1.17 0 01-1.463-.627 1.029 1.029 0 01.687-1.347z"/><path data-name="Tracé 19" d="M149.202 37.388a1.17 1.17 0 011.457.628 1.029 1.029 0 01-.682 1.345 1.17 1.17 0 01-1.462-.626 1.029 1.029 0 01.687-1.347z"/><path data-name="Tracé 20" d="M150.605 40.939a1.17 1.17 0 011.457.629 1.029 1.029 0 01-.681 1.345 1.17 1.17 0 01-1.463-.627 1.029 1.029 0 01.687-1.347z"/><path data-name="Tracé 21" d="M152.01 44.49a1.17 1.17 0 011.456.63 1.029 1.029 0 01-.68 1.344 1.17 1.17 0 01-1.463-.626 1.029 1.029 0 01.686-1.347z"/><path data-name="Tracé 22" d="M153.413 48.042a1.17 1.17 0 011.456.629 1.029 1.029 0 01-.68 1.345 1.17 1.17 0 01-1.463-.627 1.029 1.029 0 01.687-1.347z"/><path data-name="Tracé 23" d="M154.817 51.594a1.17 1.17 0 011.457.629 1.029 1.029 0 01-.681 1.345 1.17 1.17 0 01-1.463-.627 1.029 1.029 0 01.687-1.347z"/></g><g data-name="Ticket"><path data-name="Tracé 7" d="M92.541 28.295v40.4h58.314a6.835 6.835 0 016.7-4.376 7.656 7.656 0 017.223 4.376h16v-40.4h-16s-1.36 4.335-7.223 4.475-6.7-4.475-6.7-4.475z" fill="#fff" stroke="#7530ff" stroke-linecap="round" stroke-linejoin="round" stroke-width="3"/><g data-name="Pointillés" transform="translate(155.79 35.507)" fill="#7530ff"><ellipse data-name="Ellipse 13" cx=".982" cy="1.5" rx=".982" ry="1.5"/><ellipse data-name="Ellipse 14" cx=".982" cy="1" rx=".982" ry="1" transform="translate(0 5)"/><ellipse data-name="Ellipse 16" cx=".982" cy="1.5" rx=".982" ry="1.5" transform="translate(0 8)"/><ellipse data-name="Ellipse 17" cx=".982" cy="1" rx=".982" ry="1" transform="translate(0 12)"/><ellipse data-name="Ellipse 18" cx=".982" cy="1" rx=".982" ry="1" transform="translate(0 15)"/><ellipse data-name="Ellipse 15" cx=".982" cy="1" rx=".982" ry="1" transform="translate(0 20)"/><ellipse data-name="Ellipse 19" cx=".982" cy="1" rx=".982" ry="1" transform="translate(0 23)"/></g></g><path data-name="FontAwsome (subway)" d="M123.53 40.433v13.024c0 2.636-3.4 4.884-7.184 4.884l3.48 2.53a.4.4 0 01-.274.726h-16.796a.4.4 0 01-.274-.726l3.48-2.53c-3.768 0-7.184-2.241-7.184-4.884V40.433c0-2.697 3.536-4.884 7.072-4.884h10.608c3.592 0 7.072 2.187 7.072 4.884zm-13.702 6.916v-5.7a1.277 1.277 0 00-1.326-1.216h-5.746a1.277 1.277 0 00-1.326 1.221v5.7a1.277 1.277 0 001.326 1.221h5.746a1.277 1.277 0 001.326-1.226zm11.05 0v-5.7a1.277 1.277 0 00-1.326-1.221h-5.746a1.277 1.277 0 00-1.328 1.226v5.7a1.277 1.277 0 001.326 1.221h5.746a1.277 1.277 0 001.328-1.226zm-2.652 2.849a2.554 2.554 0 00-2.648 2.445 2.554 2.554 0 002.652 2.442 2.554 2.554 0 002.648-2.442 2.554 2.554 0 00-2.652-2.442zm-14.144 0a2.554 2.554 0 00-2.652 2.442 2.554 2.554 0 002.648 2.445 2.554 2.554 0 002.652-2.442 2.554 2.554 0 00-2.652-2.442z" fill="#7530ff"/><path data-name="Ligne 21" fill="none" stroke="#b8b8b8" stroke-linecap="round" stroke-width="3" d="M130.93 40.798h18.698"/><path data-name="Ligne 22" fill="none" stroke="#b8b8b8" stroke-linecap="round" stroke-width="3" d="M130.93 48.357h18.698"/><path data-name="Ligne 23" fill="none" stroke="#b8b8b8" stroke-linecap="round" stroke-width="3" d="M130.93 55.916h18.698"/></svg>