<?xml version="1.0" encoding="utf-8"?>
<!-- Generator: Adobe Illustrator 25.1.0, SVG Export Plug-In . SVG Version: 6.00 Build 0)  -->
<svg version="1.1" id="Calque_1" xmlns="http://www.w3.org/2000/svg" xmlns:xlink="http://www.w3.org/1999/xlink" x="0px" y="0px"
	 viewBox="0 0 724.9 763.4" style="enable-background:new 0 0 724.9 763.4;" xml:space="preserve">
<style type="text/css">
	.st0{fill:#F2F2F2;}
	.st1{fill-rule:evenodd;clip-rule:evenodd;}
	.st2{fill-rule:evenodd;clip-rule:evenodd;fill:#FFD563;}
	.st3{fill-rule:evenodd;clip-rule:evenodd;fill:#E0E0E0;}
	.st4{fill:none;stroke:#F3F3F3;stroke-width:4.41;stroke-linejoin:round;}
	.st5{fill-rule:evenodd;clip-rule:evenodd;fill:#F3F3F3;}
	.st6{fill:none;stroke:#F3F3F3;stroke-width:4.41;stroke-linecap:round;stroke-linejoin:round;}
	.st7{fill-rule:evenodd;clip-rule:evenodd;fill:#E49D75;}
	.st8{fill-rule:evenodd;clip-rule:evenodd;fill:#2100C1;}
	.st9{fill-rule:evenodd;clip-rule:evenodd;fill:#4500E9;}
	.st10{fill-rule:evenodd;clip-rule:evenodd;fill:#FFBE00;}
	.st11{fill:#F3F3F3;}
	.st12{font-family:'Arial-BoldMT';}
	.st13{font-size:40.87px;}
	.st14{letter-spacing:-1;}
</style>
<g id="Layer_2">
	<g id="Layer_1-2">
		<path class="st0" d="M623.7,127.8c68.5,87.9,93.2,208.5,67.6,316.5S589.8,647.4,503.5,668.6s-182.7-31.5-255-85.1
			c-72.2-53.8-120.4-108.3-135.3-171.2s3.8-133.9,45.6-215.6s107-174.4,195.6-193C443.1-15.1,555.2,39.9,623.7,127.8z"/>
		<path class="st1" d="M389.8,136.5c0.2,10.1,4.4,27.1,4.6,39.7s-8.5,25.6-11.1,31.9s11.4,26.6,11.4,26.6l31.6-17.7l-1.3-55.4
			C425,161.6,389.6,126.4,389.8,136.5z"/>
		<path class="st2" d="M409,180.6c20.5,13.3-6,63.4-17.9,72.4s-43.8-12.7-44.3-23.9S388.6,167.4,409,180.6z"/>
		<path class="st3" d="M43.8,173.4L0,449.7l138.5,21.9l25.4-18.4l18.5,25.4l498.7,78.9l43.7-276.4l-497.3-78.7L200.5,222l-19.7-27
			L43.8,173.4z"/>
		<path class="st4" d="M163.7,454.6l37-233.7"/>
		<path class="st5" d="M103.4,342.8l20.9,3.3l-14.3,90.6l-20.9-3.3L103.4,342.8z"/>
		<path class="st5" d="M113.7,278l20.8,3.3l-7.3,46.3l-20.8-3.3L113.7,278z"/>
		<path class="st5" d="M248.4,260l389.9,61.7l-3.7,23.2l-389.9-61.7L248.4,260z"/>
		<path class="st6" d="M244.7,318.7l314.9,49.9"/>
		<path class="st6" d="M239.6,352.2l224.8,35.6"/>
		<path class="st6" d="M235.6,385.4l354.7,56.1"/>
		<path class="st1" d="M418.3,56.4c37.2,0,50.9,32.2,51.5,53.1c0,12.7-3.7,25.1-1,34.7c-0.2,23.9,25.7,46.7,25.7,83.7
			c0,66-51.3,57.7-77.8,58.7s-4.9-61.2-4.5-73.2s0.9-39,1.7-50.2s-30.8-33.9-30.4-43.7S365.5,58.2,418.3,56.4z"/>
		<path class="st7" d="M593.7,678.2l16.8,11.4l15.2-17.1l-15.2-15.2L593.7,678.2z"/>
		<path class="st7" d="M297.3,713.8l-7.2,17.4l20.5,9.8l8.1-16.4L297.3,713.8z"/>
		<path class="st8" d="M482.2,336.7c8.9,8.5,13.5,140,12.2,166.4c6.7,14.8,118,154.4,118,154.4l-18.6,23.4c0,0-151.9-116-160-129.2
			S339.5,413.2,482.2,336.7z"/>
		<path class="st9" d="M381.5,361c-7.2,19.9-35.8,133.3-40.8,165.4s-45.2,187.9-45.2,187.9l23,12.5c0,0,180-320.3,162.4-378.9
			S388.7,341.1,381.5,361z"/>
		<path class="st7" d="M378.8,111.2c1.8-25.4,19.3-44.8,39.2-43.4s34.5,23.1,32.7,48.5s-19.3,44.8-39.2,43.4S377,136.5,378.8,111.2z
			"/>
		<path class="st10" d="M420.5,173.8c56.6-13.6,75.6,139,64.4,174.8c-10.1,25.9-79.5,35.4-106.7,22.3
			C367.7,362.6,342.8,192.4,420.5,173.8z"/>
		<path class="st7" d="M429,264.6c2.3,14.2,6.3,61,7,72s-13.1,75-17.8,83.8c4.7,6.5,18.7,18.3,18.7,18.3s26.2-53.7,36.4-96.7
			c3.2-13.6-6.9-78.3-8.7-83.5S426.7,250.4,429,264.6z"/>
		<path class="st1" d="M313,738.1l-10.6,25.3l-69.8-27.5l4.5-11.7l52.6,3.2L313,738.1z"/>
		<path class="st1" d="M624,669.1l21.7,16.8L601,746.1l-10.1-7.4l16.8-49.9L624,669.1z"/>
		<path class="st1" d="M397.1,69.2c0.2,10.6,6.8,38.7,42.5,53.3c22.2,9.1,20.5,0,20.5,0L446.9,73l-19.7-11.6
			C427.2,61.4,396.9,58.5,397.1,69.2z"/>
		<path class="st7" d="M430.4,123.6c0-5.4,4.4-9.8,9.8-9.8c5.4,0,9.8,4.4,9.8,9.8c0,5.4-4.4,9.8-9.8,9.8l0,0
			C434.7,133.4,430.4,129,430.4,123.6z"/>
		<path class="st2" d="M436.3,190.5c24.1-3.6,37.4,51.6,34.4,66.2c-8.6,10.1-32.3,13.7-49,11.3C414,259.8,412.2,194,436.3,190.5z"/>
		<path class="st7" d="M408.2,138.5h30v42.8c-4.6,4.1-21.4,8.3-30-0.5V138.5z"/>
		<text transform="matrix(0.1576 -0.9875 0.9875 0.1576 63.41 431.4503)" class="st11 st12 st13">ADMI</text>
		<text transform="matrix(0.1576 -0.9875 0.9875 0.1576 80.142 326.6368)" class="st11 st12 st13 st14">T</text>
		<text transform="matrix(0.1576 -0.9875 0.9875 0.1576 83.5376 305.3663)" class="st11 st12 st13"> ONE</text>
	</g>
</g>
</svg>
