<svg xmlns="http://www.w3.org/2000/svg" width="79.239" height="58.305"><path data-name="Tracé 7" d="M1.923 25.238l11.552 29.225 42.19-14.139a4.894 4.894 0 013.598-4.792 6.252 6.252 0 016.475 1.416l11.578-3.88-11.55-29.227-11.582 3.882s.256 3.467-3.945 4.989-6.13-1.612-6.13-1.612z" fill="#fff" stroke="#7530ff" stroke-linecap="round" stroke-linejoin="round" stroke-width="3"/><g fill="#7530ff"><path data-name="Tracé 17" d="M50.7 15.179a.9.9 0 011.124.483.792.792 0 01-.524 1.036.9.9 0 01-1.126-.483.792.792 0 01.525-1.036z"/><path data-name="Tracé 18" d="M51.78 17.913a.9.9 0 011.125.484.792.792 0 01-.525 1.035.9.9 0 01-1.126-.483.792.792 0 01.526-1.036z"/><path data-name="Tracé 19" d="M52.86 20.647a.9.9 0 011.126.484.792.792 0 01-.524 1.036.9.9 0 01-1.126-.483.792.792 0 01.525-1.037z"/><path data-name="Tracé 20" d="M53.941 23.382a.9.9 0 011.125.483.792.792 0 01-.524 1.036.9.9 0 01-1.126-.483.792.792 0 01.525-1.036z"/><path data-name="Tracé 21" d="M55.023 26.116a.9.9 0 011.125.483.792.792 0 01-.525 1.036.9.9 0 01-1.126-.483.792.792 0 01.526-1.036z"/><path data-name="Tracé 22" d="M56.103 28.851a.9.9 0 011.125.483.792.792 0 01-.524 1.036.9.9 0 01-1.126-.483.792.792 0 01.525-1.036z"/><path data-name="Tracé 23" d="M57.185 31.585a.9.9 0 011.125.484.792.792 0 01-.525 1.035.9.9 0 01-1.126-.483.792.792 0 01.526-1.036z"/></g><g data-name="Ticket"><path data-name="Tracé 7" d="M9.24 13.647v31.1h44.9a5.262 5.262 0 015.161-3.369 5.894 5.894 0 015.561 3.369h12.321v-31.1H64.858s-1.047 3.338-5.561 3.445-5.161-3.445-5.161-3.445z" fill="#fff" stroke="#7530ff" stroke-linecap="round" stroke-linejoin="round" stroke-width="3"/><g data-name="Pointillés" transform="translate(57.936 19.199)" fill="#7530ff"><ellipse data-name="Ellipse 13" cx=".756" cy="1.155" rx=".756" ry="1.155"/><ellipse data-name="Ellipse 14" cx=".756" cy=".77" rx=".756" ry=".77" transform="translate(0 3.85)"/><ellipse data-name="Ellipse 16" cx=".756" cy="1.155" rx=".756" ry="1.155" transform="translate(0 6.159)"/><ellipse data-name="Ellipse 17" cx=".756" cy=".77" rx=".756" ry=".77" transform="translate(0 9.239)"/><ellipse data-name="Ellipse 18" cx=".756" cy=".77" rx=".756" ry=".77" transform="translate(0 11.549)"/><ellipse data-name="Ellipse 15" cx=".756" cy=".77" rx=".756" ry=".77" transform="translate(0 15.398)"/><ellipse data-name="Ellipse 19" cx=".756" cy=".77" rx=".756" ry=".77" transform="translate(0 17.708)"/></g></g><path data-name="FontAwsome (subway)" d="M33.099 22.991v10.028c0 2.03-2.621 3.76-5.531 3.76l2.679 1.952a.311.311 0 01-.211.559H17.105a.311.311 0 01-.211-.559l2.679-1.948c-2.901-.004-5.531-1.729-5.531-3.764V22.991c0-2.076 2.722-3.76 5.445-3.76h8.167c2.765 0 5.445 1.684 5.445 3.76zM22.55 28.318v-4.387a.983.983 0 00-1.021-.94h-4.424a.983.983 0 00-1.021.94v4.387a.983.983 0 001.021.94h4.424a.983.983 0 001.021-.94zm8.508 0v-4.387a.983.983 0 00-1.021-.94h-4.425a.983.983 0 00-1.021.94v4.387a.983.983 0 001.021.94h4.424a.983.983 0 001.021-.94zm-2.042 2.194a1.966 1.966 0 00-2.042 1.88 1.966 1.966 0 002.042 1.88 1.966 1.966 0 002.042-1.88 1.966 1.966 0 00-2.042-1.88zm-10.89 0a1.966 1.966 0 00-2.042 1.88 1.966 1.966 0 002.042 1.88 1.966 1.966 0 002.042-1.88 1.966 1.966 0 00-2.042-1.88z" fill="#7530ff"/><path data-name="Ligne 21" fill="none" stroke="#b8b8b8" stroke-linecap="round" stroke-width="3" d="M38.796 23.273h14.396"/><path data-name="Ligne 22" fill="none" stroke="#b8b8b8" stroke-linecap="round" stroke-width="3" d="M38.796 29.093h14.396"/><path data-name="Ligne 23" fill="none" stroke="#b8b8b8" stroke-linecap="round" stroke-width="3" d="M38.796 34.912h14.396"/></svg>