<?xml version="1.0" encoding="utf-8"?>
<!-- Generator: Adobe Illustrator 25.1.0, SVG Export Plug-In . SVG Version: 6.00 Build 0)  -->
<svg version="1.1" id="Calque_1" xmlns="http://www.w3.org/2000/svg" xmlns:xlink="http://www.w3.org/1999/xlink" x="0px" y="0px"
	 viewBox="0 0 757.6 896.7" style="enable-background:new 0 0 757.6 896.7;" xml:space="preserve">
<style type="text/css">
	.st0{fill:#F1F1F1;}
	.st1{fill:#E49D75;}
	.st2{fill:#2100C1;}
	.st3{fill:#4E00E9;}
	.st4{fill:#E0E0E0;}
	.st5{fill:#A4A4A4;}
	.st6{fill:none;stroke:#E0E0E0;stroke-width:32;stroke-linecap:round;stroke-linejoin:round;}
	.st7{fill:#FFBE00;}
	.st8{fill:#FFD563;}
	.st9{fill-rule:evenodd;clip-rule:evenodd;}
</style>
<g id="Layer_2">
	<g id="vector">
		<path class="st0" d="M636.5,232.7c68.1,61.3,93.2,180.9,67.3,286.6C677.8,625.1,601,717,496,778.3c-105,61.1-238,91.9-326.8,43.9
			S36.2,647.6,13.8,523.5c-22.2-124.1-22.6-245.7,36.6-305c59.1-59.1,177.6-56.2,292.4-53.3C457.6,168.3,568.6,171.4,636.5,232.7z"
			/>
		<rect x="558.8" y="858.3" class="st1" width="22.1" height="14.7"/>
		
			<rect x="677.1" y="835.5" transform="matrix(0.7779 -0.6284 0.6284 0.7779 -378.118 619.6081)" class="st1" width="20.7" height="18.4"/>
		<path class="st1" d="M594.6,256.4h1c4.5,0,8.2,3.7,8.2,8.2v4.2c0,4.5-3.7,8.2-8.2,8.2h-1c-4.5,0-8.2-3.7-8.2-8.2v-4.2
			C586.3,260.1,590,256.4,594.6,256.4z"/>
		<path class="st2" d="M602.4,567.4c3,6.9,26,144.9,29.4,158s57.5,98.2,61.1,103.3c1.1,7.4-15.6,19.8-23.5,19.8
			c-7.9-6.3-100.4-140.3-102.6-146.2S557.1,553.9,602.4,567.4z"/>
		<path class="st3" d="M505.8,544.5c-1,5.7,14.6,136,16.5,153.5s31.9,158.5,34.5,162s22.8,2.8,26.3,1s-6.8-147-6.8-157.5
			s27-107.7,23.5-135.8S505.8,544.5,505.8,544.5z"/>
		<rect x="561.4" y="386.6" class="st1" width="21.1" height="36.7"/>
		<path class="st4" d="M117.4,137.9h334.7c12.4,0,22.4,10,22.4,22.4V495c0,12.4-10,22.4-22.4,22.4H117.4c-12.4,0-22.4-10-22.4-22.4
			V160.3C95,147.9,105,137.9,117.4,137.9z"/>
		<path class="st5" d="M308.5,310.8c14.3-13.1,15.2-35.3,2.1-49.6c-13.1-14.3-35.3-15.2-49.6-2.1c-14.3,13.1-15.2,35.3-2.1,49.6
			c0.7,0.7,1.4,1.5,2.1,2.1l-27,109.6h101.5L308.5,310.8z"/>
		<path class="st6" d="M162.9,137.9c0.6-67.3,55.7-121.4,123-120.8c66.4,0.6,120.1,54.3,120.8,120.8"/>
		<ellipse class="st1" cx="569.2" cy="353.6" rx="29" ry="39"/>
		<path class="st7" d="M565.2,415.8c-35.2,0-66.5,97.5-60.5,129.9c1.8,9.6,85.9,28.8,98.8,26.2C608.1,565.6,626.8,415.8,565.2,415.8
			z"/>
		<path class="st8" d="M556.2,470.1c15.7-11.4-9.4-66.8-15.3-67.7c-10.8-1.8-37.8,19-36.9,27.7C504.5,434.7,540.2,481.7,556.2,470.1
			z"/>
		<path class="st1" d="M509,426c-4.2-5.1-14.8-30-16-35.9s-4-94.7-4-100s-7-18.5-7-26.4s8.1-18.7,12.2-18.8
			c4.4,3.1,10.5,21.3,10.7,26c1.5-10,8.8-12.3,10.8-12.3s1.7,15.5-6.5,25.9c0.3,7.6,10,83.3,11.6,87.7s19.5,33.1,19.4,35.6
			S509,426,509,426z"/>
		
			<rect x="542" y="86.4" transform="matrix(0.1354 -0.9908 0.9908 0.1354 210.0596 771.5968)" class="st5" width="10.2" height="358.1"/>
		
			<rect x="363" y="251.5" transform="matrix(0.1354 -0.9908 0.9908 0.1354 66.7003 601.2904)" class="st5" width="29.6" height="21.9"/>
		
			<rect x="389" y="260.1" transform="matrix(0.1354 -0.9908 0.9908 0.1354 85.5926 630.0292)" class="st5" width="29.6" height="11.8"/>
		<path class="st1" d="M604.7,334c-0.8-4.7-1.6-39.1-0.3-43.9s4.7-8.4,6.3-15.6c0.5-2.5-0.3-11.1-2-11.5c-3.6-0.8-3.8,3.3-4.3,6.3
			c-1.9,10.2-5.7,8.4-7.4,8.1s-7.8-1.3-9.7-1.3s3,4,1.5,10.5c-1.2,5.1-6.8,39-8,44.5C585,331.2,604.7,334,604.7,334z"/>
		
			<rect x="408.9" y="262.8" transform="matrix(0.1354 -0.9908 0.9908 0.1354 100.1282 652.1088)" class="st5" width="29.6" height="11.8"/>
		
			<rect x="394.3" y="224.2" transform="matrix(0.1354 -0.9908 0.9908 0.1354 92.0866 617.0106)" class="st5" width="10.5" height="63.1"/>
		<path class="st5" d="M734.7,264.1c-14.5-2-27.9,8.2-29.9,22.7s8.2,27.9,22.7,29.9c14.5,2,27.9-8.2,29.9-22.7
			C759.4,279.5,749.3,266.1,734.7,264.1C734.7,264.1,734.7,264.1,734.7,264.1z M749,292.8c-1.4,9.9-10.5,16.8-20.4,15.5
			c-9.9-1.4-16.8-10.5-15.5-20.4c1.4-9.9,10.5-16.8,20.4-15.5c0,0,0,0,0,0C743.4,273.8,750.4,282.9,749,292.8z"/>
		<path class="st1" d="M509.3,284.3c-1.3-5.2-3.9-9.7-4.3-13.6v0.1c-0.3-4.7-6.4-22.9-10.7-26c-4.1,0.1-12.2,10.9-12.2,18.8
			c0,5.8,3.8,14.5,5.8,20.8h21.4l0,0L509.3,284.3z"/>
		<path d="M543.1,329.2c0,13.5,9.5,21.8,24.6,26.5c0,18.5,2.8,19.3,2.8,30.5c0,24.2-4.1,12.1-4.1,53.9c0,25.2,10.6,38.9,30,38.9
			c23.5,0,37-24.9,37-38.3c0-17-16.8-46.5-18-71.1c-1.6-33-11.9-60.6-37.6-60.6C555.8,309.1,543.1,317.3,543.1,329.2z"/>
		<circle class="st1" cx="569.2" cy="358.8" r="7.8"/>
		<path class="st9" d="M701.3,842.5l12.5,17.1l-26.2,37l-24.7,0.2l0.3-12.5l9.9-4.4l8.8-21.7L701.3,842.5z"/>
		<polyline points="582.4,871.8 582.4,896.7 509.1,896.7 509.1,885.7 557.5,871.8 582.4,871.8 		"/>
	</g>
</g>
</svg>
